PathFileType	4	(X/Y/Z)	OpenSim_Sub05_CSStiffKnee_Magnet.trc
DataRate	CameraRate	NumFrames	NumMarkers	Units	OrigDataRate	OrigDataStartFrame	OrigNumFrames
100	100	20	8	m	100	7031	11248
Frame#	Time	torso_imu_offset_imu	pelvis_imu_offset_imu	tibia_r_imu_offset_imu	femur_r_imu_offset_imu	tibia_l_imu_offset_imu	femur_l_imu_offset_imu	toes_r_imu_offset_imu	toes_l_imu_offset_imu
				X1	Y1	Z1	X2	Y2	Z2	X3	Y3	Z3	X4	Y4	Z4	X5	Y5	Z5	X6	Y6	Z6	X7	Y7	Z7	X8		Y8	Z8	

7031	70.30000000	-0.89149531	-0.18362647	0.18402925	-0.65967533	0.17985039	-0.65794831	-0.40363933	-0.71087889	-0.04665759	-0.75900335	-0.40569659	0.11888978	-0.71126377	0.33562578	0.20395856	-0.60134775	0.22758102	0.22166828	-0.76965627	-0.18199639	-0.08491684	-0.61985395	-0.25109207	-0.44833837
7032	70.31000000	-0.89143880	-0.18949856	0.18350296	-0.66057365	0.18943246	-0.65414504	-0.39081707	-0.71850114	-0.04697280	-0.76235042	-0.40691152	0.11507920	-0.71009864	0.33738404	0.20910129	-0.60179525	0.22578878	0.22274488	-0.76943904	-0.18333371	-0.06989118	-0.62413101	-0.24410264	-0.43994899
7033	70.32000000	-0.89238898	-0.19161992	0.18379467	-0.66607880	0.19221077	-0.64875228	-0.37315140	-0.72273332	-0.05368933	-0.76214985	-0.39643670	0.10643255	-0.71033417	0.34547854	0.21421415	-0.60029699	0.22177035	0.22795783	-0.77078319	-0.18550063	-0.04384158	-0.62876965	-0.23935661	-0.42644780
7034	70.33000000	-0.88809553	-0.18946828	0.18330626	-0.66919089	0.19773058	-0.64043370	-0.36321995	-0.73068333	-0.05702513	-0.76842631	-0.39634807	0.10357037	-0.70329441	0.34979291	0.21245210	-0.59909927	0.22068708	0.22388279	-0.77190968	-0.18892191	-0.02064201	-0.64243491	-0.23996992	-0.40882345
7035	70.34000000	-0.89370015	-0.19070247	0.17785831	-0.66436077	0.20366553	-0.63958016	-0.34846643	-0.73807649	-0.05503314	-0.77401079	-0.39289628	0.09336037	-0.69298067	0.36591543	0.21402232	-0.59876679	0.22244758	0.21656738	-0.77167446	-0.19186686	0.00461250	-0.65497296	-0.23451159	-0.39345789
7036	70.35000000	-0.89248287	-0.19448061	0.17517538	-0.66442404	0.21175904	-0.63770317	-0.32781269	-0.74450072	-0.06012380	-0.77646328	-0.38057956	0.08148954	-0.68448252	0.38088323	0.22485438	-0.59415131	0.22225599	0.22658883	-0.77078737	-0.19598427	0.03746901	-0.65042124	-0.22469533	-0.39393249
7037	70.36000000	-0.89183937	-0.19638436	0.17942381	-0.67070932	0.21660342	-0.63398040	-0.31244918	-0.75584575	-0.06582940	-0.78352945	-0.36554712	0.07589033	-0.67776300	0.38920839	0.22530429	-0.59454296	0.22126183	0.23074543	-0.76770519	-0.20217417	0.07436346	-0.65481109	-0.22553396	-0.39110201
7038	70.37000000	-0.89517326	-0.19771595	0.17707687	-0.67047044	0.22114528	-0.63158286	-0.29052448	-0.75793366	-0.06861684	-0.79278830	-0.35254323	0.06380064	-0.67431934	0.39422322	0.22402520	-0.59731722	0.21911368	0.22994583	-0.76187713	-0.20375366	0.11307541	-0.66179267	-0.22350984	-0.38064783
7039	70.38000000	-0.88644809	-0.20345471	0.17651019	-0.66712356	0.23014621	-0.63174141	-0.26764166	-0.76494050	-0.07101899	-0.79998673	-0.33850723	0.05370088	-0.66768351	0.39962074	0.22881454	-0.59822002	0.22320793	0.22981163	-0.75705218	-0.20452254	0.15253315	-0.66151875	-0.21798183	-0.38119716
7040	70.39000000	-0.88804477	-0.20251457	0.17520373	-0.67061607	0.23171362	-0.62645550	-0.24953487	-0.77190633	-0.06954759	-0.80929739	-0.31976386	0.04787124	-0.66623788	0.40597394	0.23528991	-0.59912994	0.22765358	0.22425179	-0.74372826	-0.21451453	0.19311297	-0.66433196	-0.21715474	-0.38145914
7041	70.40000000	-0.88928448	-0.20160449	0.17443288	-0.67210967	0.22889318	-0.62089084	-0.22954925	-0.78003466	-0.05749703	-0.81804782	-0.29765981	0.03386730	-0.65790336	0.40757513	0.24216534	-0.59470923	0.22420712	0.22813159	-0.73385401	-0.22107883	0.22925146	-0.66723942	-0.21939735	-0.37931267
7042	70.41000000	-0.88874020	-0.20819884	0.17174064	-0.67537024	0.21981052	-0.61355314	-0.20653590	-0.78367565	-0.04665416	-0.82723471	-0.27524188	0.01603270	-0.64675807	0.41651580	0.24633399	-0.59213375	0.22268407	0.23092948	-0.72246658	-0.22761753	0.26411843	-0.67229487	-0.22416412	-0.38186956
7043	70.42000000	-0.88925071	-0.21386163	0.16491020	-0.67889937	0.21614712	-0.61309886	-0.18704540	-0.78643561	-0.03393070	-0.83562971	-0.25744017	0.00924290	-0.64986899	0.43133668	0.24600920	-0.59327513	0.22618098	0.23633560	-0.70803681	-0.23856831	0.29554382	-0.66655874	-0.22867218	-0.37897846
7044	70.43000000	-0.88647159	-0.22203025	0.16510869	-0.67931252	0.21376014	-0.61331355	-0.16860526	-0.79131753	-0.02151067	-0.83992056	-0.23891382	0.00015943	-0.64072720	0.43260122	0.24732185	-0.59110161	0.22457962	0.23748672	-0.69590492	-0.24163072	0.32363416	-0.66546606	-0.23172140	-0.37464898
7045	70.44000000	-0.88371007	-0.22687413	0.16586530	-0.68050853	0.20780509	-0.61184131	-0.15516556	-0.79408501	-0.01665374	-0.84277581	-0.21851491	-0.01689926	-0.63664845	0.43442068	0.25557865	-0.59261257	0.22141590	0.24151275	-0.68339364	-0.25001654	0.34165066	-0.66855503	-0.22832297	-0.37578425
7046	70.45000000	-0.88413990	-0.23201374	0.16355785	-0.68113985	0.20331165	-0.61696435	-0.13749024	-0.79650331	-0.00550188	-0.85007358	-0.20056379	-0.02384088	-0.63573826	0.43988443	0.25905117	-0.58669800	0.22361915	0.24446026	-0.67730379	-0.25485335	0.34122731	-0.67004906	-0.22705598	-0.38283464
7047	70.46000000	-0.88292459	-0.23838015	0.16733169	-0.68260669	0.20218520	-0.61601131	-0.12257186	-0.79623799	0.00509287	-0.85824698	-0.18089081	-0.02503708	-0.62889963	0.44175299	0.26214291	-0.58382106	0.22443849	0.24970146	-0.68273908	-0.25745542	0.33360109	-0.66800198	-0.22853500	-0.38523482
7048	70.47000000	-0.87905400	-0.24491705	0.16781665	-0.68145100	0.20501743	-0.61552443	-0.12042133	-0.79512511	-0.00516410	-0.85771511	-0.16056135	-0.03388078	-0.62533535	0.44996423	0.26485670	-0.58146739	0.22625052	0.25975403	-0.68942477	-0.26808985	0.32903784	-0.66923439	-0.22993042	-0.38152445
7049	70.48000000	-0.87551829	-0.25018303	0.16396335	-0.67893104	0.19981909	-0.61897436	-0.12413495	-0.79352556	-0.02722285	-0.85685794	-0.14442465	-0.04128367	-0.62049095	0.46056972	0.26879205	-0.58057412	0.22425807	0.26639806	-0.69313522	-0.26283568	0.31664807	-0.67267095	-0.22985722	-0.38243161
7050	70.49000000	-0.86713408	-0.25435082	0.16171157	-0.67728696	0.20060058	-0.61774776	-0.13633387	-0.79472029	-0.03908262	-0.86560824	-0.12920080	-0.03950967	-0.61804195	0.46047328	0.27432462	-0.57939100	0.22492345	0.27005337	-0.70438349	-0.25698119	0.29508538	-0.66977580	-0.22905971	-0.38168934
